<svg xmlns="http://www.w3.org/2000/svg" xmlns:xlink="http://www.w3.org/1999/xlink" width="232.031" height="224.296" viewBox="0 0 232.031 224.296"><defs><linearGradient id="linear-gradient" x1="0.063" y1="0.06" x2="1.141" y2="1.506" gradientUnits="objectBoundingBox"><stop offset="0" stop-color="#9d85ff"></stop><stop offset="1" stop-color="#7400d4"></stop></linearGradient></defs><g id="money" transform="translate(0 -7.982)"><g id="Group_1310" data-name="Group 1310" transform="translate(0 81.651)"><g id="Group_1309" data-name="Group 1309"><path id="Path_2263" data-name="Path 2263" d="M197.152,160.017H3.322A3.318,3.318,0,0,0,0,163.331v93.042A3.318,3.318,0,0,0,3.314,259.7H135.121a3.322,3.322,0,0,0,0-6.644H6.644v-86.39H193.822v8.307a3.318,3.318,0,0,0,3.314,3.322h.008a3.318,3.318,0,0,0,3.322-3.314V163.339A3.319,3.319,0,0,0,197.152,160.017Z" transform="translate(0 -160.017)" fill="url(#linear-gradient)"></path></g></g><g id="Group_1312" data-name="Group 1312" transform="translate(7.751 31.259)"><g id="Group_1311" data-name="Group 1311" transform="translate(0 0)"><path id="Path_2264" data-name="Path 2264" d="M182.859,90.987,27.8,56.1a3.322,3.322,0,0,0-3.973,2.52L16.075,93.507a3.324,3.324,0,0,0,6.489,1.442l7.028-31.636L181.4,97.469a3.133,3.133,0,0,0,.733.081,3.322,3.322,0,0,0,.725-6.563Z" transform="translate(-15.995 -56.019)" fill="url(#linear-gradient)"></path></g></g><g id="Group_1314" data-name="Group 1314" transform="translate(50.333 7.982)"><g id="Group_1313" data-name="Group 1313"><path id="Path_2265" data-name="Path 2265" d="M209.328,47,116.294,8.239a3.334,3.334,0,0,0-4.264,1.585l-7.753,15.506a3.334,3.334,0,1,0,5.865,3.171c.034-.063.067-.128.1-.194v.008l6.361-12.73,90.162,37.567A3.331,3.331,0,1,0,209.328,47Z" transform="translate(-103.875 -7.982)" fill="url(#linear-gradient)"></path></g></g><g id="Group_1316" data-name="Group 1316" transform="translate(124.046 97.157)"><g id="Group_1315" data-name="Group 1315"><path id="Path_2266" data-name="Path 2266" d="M290.089,192.017H259.322a3.322,3.322,0,1,0,0,6.644h30.767a3.322,3.322,0,0,0,0-6.644Z" transform="translate(-256 -192.017)" fill="url(#linear-gradient)"></path></g></g><g id="Group_1318" data-name="Group 1318" transform="translate(62.244 97.378)"><g id="Group_1317" data-name="Group 1317"><path id="Path_2267" data-name="Path 2267" d="M162.569,192.473a34.113,34.113,0,1,0,34.113,34.113A34.113,34.113,0,0,0,162.569,192.473Zm0,62.023a27.91,27.91,0,1,1,27.91-27.91A27.91,27.91,0,0,1,162.569,254.5Z" transform="translate(-128.456 -192.473)" fill="url(#linear-gradient)"></path></g></g><g id="Group_1320" data-name="Group 1320" transform="translate(146.75 108.232)"><g id="Group_1319" data-name="Group 1319"><path id="Path_2268" data-name="Path 2268" d="M345.5,214.873c-20.545,0-42.641,4.853-42.641,15.506v93.035c0,10.652,22.1,15.506,42.641,15.506s42.641-4.853,42.641-15.506V230.379C388.138,219.726,366.042,214.873,345.5,214.873Zm34.888,108.482c-.585,2.151-12.211,7.811-34.888,7.811s-34.3-5.66-34.888-7.753V317.32c8.249,4.156,21.875,6.094,34.888,6.094s26.643-1.958,34.888-6.1Zm0-15.506C379.8,310,368.174,315.66,345.5,315.66s-34.3-5.66-34.888-7.753v-6.094c8.249,4.156,21.875,6.094,34.888,6.094s26.643-1.958,34.888-6.1Zm0-15.506c-.585,2.151-12.211,7.811-34.888,7.811s-34.3-5.66-34.888-7.753v-6.094c8.249,4.156,21.875,6.094,34.888,6.094s26.643-1.958,34.888-6.1Zm0-15.506c-.585,2.151-12.211,7.811-34.888,7.811s-34.3-5.66-34.888-7.753V270.8c8.249,4.156,21.875,6.094,34.888,6.094s26.643-1.958,34.888-6.1Zm0-15.506c-.585,2.151-12.211,7.811-34.888,7.811s-34.3-5.66-34.888-7.753V255.3c8.249,4.136,21.875,6.094,34.888,6.094s26.643-1.958,34.888-6.1Zm0-15.506c-.585,2.151-12.211,7.811-34.888,7.811s-34.3-5.66-34.888-7.753v-6.094c8.249,4.136,21.875,6.094,34.888,6.094s26.643-1.958,34.888-6.1ZM345.5,238.132c-22.642,0-34.264-5.644-34.888-7.683v-.023c.624-2.159,12.246-7.8,34.888-7.8,22.483,0,34.113,5.559,34.888,7.753C379.61,232.573,367.98,238.132,345.5,238.132Z" transform="translate(-302.856 -214.873)" fill="url(#linear-gradient)"></path></g></g><g id="Group_1322" data-name="Group 1322" transform="translate(15.502 97.157)"><g id="Group_1321" data-name="Group 1321"><path id="Path_2269" data-name="Path 2269" d="M81.835,254.036h-29.3l-13.893-15.2v-25.2l15.343-14.982H81.835a3.322,3.322,0,0,0,0-6.644h-29.2a3.326,3.326,0,0,0-2.326.942l-17.316,16.89a4.164,4.164,0,0,0-1,2.714v27.569a3.324,3.324,0,0,0,.868,2.241L48.61,259.6a3.322,3.322,0,0,0,2.454,1.082H81.835a3.322,3.322,0,1,0,0-6.644Z" transform="translate(-31.992 -192.017)" fill="url(#linear-gradient)"></path></g></g><g id="Group_1324" data-name="Group 1324" transform="translate(84.727 114.047)"><g id="Group_1323" data-name="Group 1323"><path id="Path_2270" data-name="Path 2270" d="M188.424,240.441h-3.876c-1.206,0-1.938-.674-1.938-.969s.733-.969,1.938-.969h9.691a3.876,3.876,0,1,0,0-7.753h-3.876a3.876,3.876,0,1,0-7.753,0v.174a9.024,9.024,0,0,0-7.753,8.528,9.257,9.257,0,0,0,9.691,8.741h3.876c1.206,0,1.938.674,1.938.969s-.733.969-1.938.969h-9.691a3.876,3.876,0,0,0,0,7.753h3.876a3.876,3.876,0,0,0,7.753,0v-.174a9.024,9.024,0,0,0,7.753-8.528A9.257,9.257,0,0,0,188.424,240.441Z" transform="translate(-174.856 -226.873)" fill="url(#linear-gradient)"></path></g></g></g></svg>