<svg xmlns="http://www.w3.org/2000/svg" xmlns:xlink="http://www.w3.org/1999/xlink" width="188.467" height="188.394" viewBox="0 0 188.467 188.394"><defs><linearGradient id="a" x1="0.063" y1="0.06" x2="1.141" y2="1.506" gradientUnits="objectBoundingBox"><stop offset="0" stop-color="#9d85ff"></stop><stop offset="1" stop-color="#7400d4"></stop></linearGradient></defs><g transform="translate(0 -0.081)"><g transform="translate(0 0.08)"><path d="M155.945,58.732l31.443-31.443a3.639,3.639,0,0,0-2.438-6.223l.109.218-17.1-.582-.582-17.1a3.639,3.639,0,0,0-6.223-2.438L129.742,32.42a3.639,3.639,0,0,0-1.055,2.693v3.639a82.1,82.1,0,1,0,21.035,21.035h3.639A3.641,3.641,0,0,0,155.945,58.732Zm1.092,47.675a74.9,74.9,0,1,1-27.913-58.229l.182,6.078L114.748,68.813a49.858,49.858,0,1,0,5.095,5.168L134.4,59.424l6,.218A74.827,74.827,0,0,1,157.037,106.407Zm-77.226,2.438a3.639,3.639,0,0,0,5.131,0l7.279-7.279a11,11,0,1,1-5.131-5.131l-7.279,7.279A3.639,3.639,0,0,0,79.811,108.845ZM92.4,91.085a18.2,18.2,0,1,0,5.131,5.131l17.25-17.25a42.507,42.507,0,1,1-5.131-5.131ZM136.657,52l-.509-15.5,24.383-24.383.4,12.119a3.639,3.639,0,0,0,3.639,3.639l12.119.4L152.16,52.509Z" transform="translate(0 -0.08)" fill="url(#a)"></path></g></g></svg>